<svg width="44" height="44" viewBox="0 0 44 44" fill="none" xmlns="http://www.w3.org/2000/svg">
<path d="M23.9791 21.2338C23.9791 22.1807 23.2117 22.9481 22.2652 22.9481C21.3187 22.9481 20.5513 22.1807 20.5513 21.2338C20.5513 20.287 21.3187 19.5195 22.2652 19.5195C23.2117 19.5195 23.9791 20.287 23.9791 21.2338Z" fill="#FFC20E" stroke="#FFC20E"/>
<circle cx="21.7735" cy="21.5997" r="12.4474" fill="#FFC20E" fill-opacity="0.25"/>
<circle cx="21.7734" cy="21.5996" r="21.5" fill="#FFC20E" fill-opacity="0.1"/>
<g filter="url(#filter0_d_2134_75061)">
<path d="M21.0489 6.92705C21.3483 6.00574 22.6517 6.00574 22.9511 6.92705L25.8167 15.7467C25.9506 16.1587 26.3346 16.4377 26.7678 16.4377H36.0413C37.0101 16.4377 37.4128 17.6773 36.6291 18.2467L29.1267 23.6976C28.7762 23.9522 28.6295 24.4036 28.7634 24.8156L31.6291 33.6353C31.9284 34.5566 30.874 35.3227 30.0902 34.7533L22.5878 29.3024C22.2373 29.0478 21.7627 29.0478 21.4122 29.3024L13.9098 34.7533C13.1261 35.3227 12.0716 34.5566 12.3709 33.6353L15.2366 24.8156C15.3705 24.4036 15.2238 23.9522 14.8733 23.6976L7.37088 18.2467C6.58717 17.6773 6.98994 16.4377 7.95867 16.4377H17.2322C17.6654 16.4377 18.0494 16.1587 18.1833 15.7467L21.0489 6.92705Z" fill="#E20000"/>
<path d="M22 7.23607L24.8657 16.0557C25.1334 16.8798 25.9013 17.4377 26.7678 17.4377H36.0413L28.5389 22.8885C27.8379 23.3978 27.5446 24.3006 27.8123 25.1246L30.678 33.9443L23.1756 28.4934C22.4746 27.9841 21.5254 27.9841 20.8244 28.4934L13.322 33.9443L16.1877 25.1246C16.4554 24.3006 16.1621 23.3978 15.4611 22.8885L7.95867 17.4377H17.2322C18.0987 17.4377 18.8666 16.8798 19.1343 16.0557L22 7.23607Z" stroke="white" stroke-width="2"/>
</g>
<defs>
<filter id="filter0_d_2134_75061" x="2.95654" y="6.23633" width="38.0869" height="36.7129" filterUnits="userSpaceOnUse" color-interpolation-filters="sRGB">
<feFlood flood-opacity="0" result="BackgroundImageFix"/>
<feColorMatrix in="SourceAlpha" type="matrix" values="0 0 0 0 0 0 0 0 0 0 0 0 0 0 0 0 0 0 127 0" result="hardAlpha"/>
<feOffset dy="4"/>
<feGaussianBlur stdDeviation="2"/>
<feComposite in2="hardAlpha" operator="out"/>
<feColorMatrix type="matrix" values="0 0 0 0 0 0 0 0 0 0 0 0 0 0 0 0 0 0 0.25 0"/>
<feBlend mode="normal" in2="BackgroundImageFix" result="effect1_dropShadow_2134_75061"/>
<feBlend mode="normal" in="SourceGraphic" in2="effect1_dropShadow_2134_75061" result="shape"/>
</filter>
</defs>
</svg>
