<svg width="23" height="35" viewBox="0 0 23 35" fill="none" xmlns="http://www.w3.org/2000/svg">
<g clip-path="url(#clip0_2134_75056)" filter="url(#filter0_d_2134_75056)">
<path d="M4.97006 14.4767L4.97016 14.4766L4.96228 14.4678C3.79831 13.1751 3.0619 11.584 2.84243 9.89561C2.62303 8.2078 2.92952 6.49468 3.725 4.97117C4.35482 3.7828 5.28751 2.7626 6.43948 2.00593C7.59191 1.24895 8.9261 0.780545 10.3196 0.645334C10.954 0.584368 11.5933 0.584368 12.2278 0.645333C13.6213 0.780449 14.9555 1.24886 16.1078 2.00592C17.2598 2.76268 18.1923 3.78302 18.8218 4.97152C19.6174 6.49498 19.9238 8.20806 19.7044 9.89582C19.485 11.5841 18.7486 13.1752 17.5846 14.4678L17.5845 14.4677L17.5768 14.4767L11.5765 21.465L11.5764 21.4652C11.5419 21.5053 11.4973 21.5392 11.4446 21.563C11.3919 21.5868 11.3334 21.5996 11.2734 21.5996C11.2135 21.5996 11.155 21.5868 11.1023 21.563C11.0496 21.5392 11.0049 21.5053 10.9705 21.4652L10.9704 21.465L4.97006 14.4767Z" fill="url(#paint0_linear_2134_75056)" stroke="white"/>
<circle cx="11.2734" cy="9.09961" r="4" fill="white"/>
<path d="M13.6168 27.9436C13.6168 29.2383 12.5675 30.2877 11.2732 30.2877C9.97901 30.2877 8.92969 29.2383 8.92969 27.9436C8.92969 26.649 9.97901 25.5996 11.2732 25.5996C12.5675 25.5996 13.6168 26.649 13.6168 27.9436Z" fill="url(#paint1_linear_2134_75056)" stroke="white"/>
</g>
<defs>
<filter id="filter0_d_2134_75056" x="0.273438" y="0.0996094" width="22" height="34.6875" filterUnits="userSpaceOnUse" color-interpolation-filters="sRGB">
<feFlood flood-opacity="0" result="BackgroundImageFix"/>
<feColorMatrix in="SourceAlpha" type="matrix" values="0 0 0 0 0 0 0 0 0 0 0 0 0 0 0 0 0 0 127 0" result="hardAlpha"/>
<feOffset dy="2"/>
<feGaussianBlur stdDeviation="1"/>
<feComposite in2="hardAlpha" operator="out"/>
<feColorMatrix type="matrix" values="0 0 0 0 0 0 0 0 0 0 0 0 0 0 0 0 0 0 0.15 0"/>
<feBlend mode="normal" in2="BackgroundImageFix" result="effect1_dropShadow_2134_75056"/>
<feBlend mode="normal" in="SourceGraphic" in2="effect1_dropShadow_2134_75056" result="shape"/>
</filter>
<linearGradient id="paint0_linear_2134_75056" x1="-2.13479" y1="3.89106" x2="9.35671" y2="23.6309" gradientUnits="userSpaceOnUse">
<stop stop-color="#FFD600"/>
<stop offset="1" stop-color="#FF8A00"/>
</linearGradient>
<linearGradient id="paint1_linear_2134_75056" x1="7.03691" y1="26.0799" x2="9.69007" y2="31.6493" gradientUnits="userSpaceOnUse">
<stop stop-color="#FFD600"/>
<stop offset="1" stop-color="#FF8A00"/>
</linearGradient>
<clipPath id="clip0_2134_75056">
<rect width="18" height="30.6881" fill="white" transform="translate(2.27344 0.0996094)"/>
</clipPath>
</defs>
</svg>
